<?xml version="1.0" standalone="no"?>
<!DOCTYPE svg PUBLIC "-//W3C//DTD SVG 20010904//EN"
 "http://www.w3.org/TR/2001/REC-SVG-20010904/DTD/svg10.dtd">
<svg version="1.0" xmlns="http://www.w3.org/2000/svg"
 width="300.000000pt" height="230.000000pt" viewBox="0 0 300.000000 230.000000"
 preserveAspectRatio="xMidYMid meet">
<metadata>
Created by potrace 1.10, written by Peter Selinger 2001-2011
</metadata>
<g transform="translate(0.000000,230.000000) scale(0.050000,-0.050000)"
fill="#000000" stroke="none">
<path d="M0 2300 l0 -2300 3000 0 3000 0 0 2287 c0 1258 -6 2292 -13 2299 -7
7 -29 4 -50 -7 -25 -14 -37 -14 -37 0 0 12 -10 21 -21 21 -12 0 -16 -9 -9 -20
8 -13 -5 -13 -40 0 -68 26 -140 26 -80 0 39 -17 38 -17 -4 -19 -24 0 -49 8
-56 19 -22 36 -90 24 -76 -14 12 -31 10 -31 -35 0 -54 38 -129 46 -108 12 10
-16 3 -16 -24 -2 -20 11 -190 20 -377 21 -207 0 -324 -6 -300 -17 28 -12 31
-18 9 -19 -17 0 -42 10 -55 23 -19 19 -24 18 -24 -2 0 -22 -6 -22 -34 1 -30
24 -32 22 -20 -13 13 -37 12 -37 -13 -5 -30 38 -64 49 -42 13 10 -16 3 -16
-27 0 -52 28 -104 28 -104 1 0 -12 10 -15 23 -7 14 9 18 5 9 -8 -15 -25 -72
-10 -72 18 0 10 -10 18 -21 18 -12 0 -15 -11 -6 -25 9 -16 1 -14 -21 4 -28 23
-38 23 -51 3 -13 -21 -24 -21 -59 1 -37 23 -46 23 -62 -3 -15 -24 -19 -24 -20
-3 0 22 -6 23 -28 4 -20 -16 -33 -16 -41 -2 -18 29 -86 27 -96 -3 -5 -15 -21
-17 -46 -6 -54 24 -389 27 -389 4 0 -10 -13 -8 -28 4 -22 18 -31 18 -38 -2 -8
-20 -11 -20 -12 -1 -1 14 -19 25 -40 25 -21 0 -43 -11 -49 -25 -8 -20 -10 -20
-11 0 -3 39 -42 30 -43 -10 -2 -30 -4 -29 -18 5 -16 40 -16 40 -26 0 -8 -31
-11 -33 -13 -6 -2 38 -262 52 -262 14 0 -10 -10 -18 -21 -18 -12 0 -16 8 -10
18 6 10 -62 19 -150 20 -125 2 -158 -3 -146 -23 11 -19 8 -20 -14 -3 -36 27
-160 29 -194 3 -17 -14 -25 -12 -25 5 0 19 -8 18 -34 -3 -18 -15 -28 -17 -20
-4 10 16 -132 23 -538 25 -442 2 -548 -2 -536 -23 13 -20 9 -20 -14 -1 -23 18
-202 25 -684 25 l-654 1 0 -2300z m1902 409 c68 -35 138 -138 138 -203 0 -28
20 -53 55 -70 151 -73 111 -296 -54 -296 -22 0 -41 9 -41 20 0 11 17 20 39 20
136 0 137 204 1 223 -37 5 -51 20 -52 57 -5 109 -10 124 -57 171 -72 71 -176
67 -254 -11 -38 -38 -81 -60 -116 -60 -64 0 -94 -29 -104 -100 -5 -34 -21 -52
-52 -56 -121 -18 -125 -193 -5 -217 71 -14 80 -47 12 -47 -120 0 -188 149
-112 245 24 30 55 55 70 55 15 0 33 20 41 45 21 69 67 111 136 126 34 8 72 26
83 41 60 79 180 104 272 57z m574 -364 c-6 -310 -7 -315 -51 -321 l-45 -7 0
322 0 321 51 0 50 0 -5 -315z m964 175 l0 -140 130 0 130 0 0 140 0 140 61 0
60 0 -5 -315 -6 -315 -55 -6 -55 -7 0 142 0 141 -130 0 -130 0 0 -141 c0 -141
0 -142 -53 -135 l-53 6 -5 300 c-5 334 -6 330 62 330 47 0 49 -5 49 -140z
m1200 101 c0 -24 -16 -41 -45 -45 -72 -10 -78 -136 -6 -136 38 0 51 -10 51
-40 0 -29 -13 -40 -49 -40 -48 0 -50 -5 -55 -165 -6 -154 -9 -165 -51 -171
-44 -7 -45 -2 -45 162 0 132 -7 172 -30 181 -16 7 -30 26 -30 42 0 17 14 31
30 31 21 0 30 21 30 70 0 87 58 150 140 150 46 0 60 -9 60 -39z m300 0 c0 -24
-16 -41 -45 -45 -72 -10 -78 -136 -6 -136 38 0 51 -10 51 -40 0 -29 -13 -40
-50 -40 -49 0 -50 -2 -50 -170 0 -168 -1 -170 -50 -170 -49 0 -50 2 -50 168 0
131 -7 170 -30 179 -16 7 -30 26 -30 42 0 17 14 31 30 31 20 0 30 20 30 64 0
82 68 156 143 156 43 0 57 -10 57 -39z m-3048 -226 c127 -117 110 -306 -38
-396 -175 -106 -395 41 -368 246 27 199 259 284 406 150z m944 48 c39 -25 6
-83 -47 -83 -66 0 -89 -55 -89 -209 0 -126 -2 -131 -50 -131 l-50 0 0 211 0
210 69 -4 c38 -3 76 1 84 9 18 18 51 17 83 -3z m323 -12 c102 -53 129 -411 31
-411 -27 0 -50 8 -50 18 0 10 -25 9 -58 -3 -76 -29 -178 12 -194 78 -29 115
41 187 183 187 75 0 90 27 32 58 -25 14 -52 12 -89 -7 -44 -23 -56 -23 -75 0
-63 76 106 138 220 80z m861 -106 c-5 -187 -2 -202 41 -215 91 -29 139 37 139
190 0 136 1 140 50 140 l50 0 0 -210 0 -210 -50 0 c-27 0 -50 9 -50 21 0 14
-12 14 -39 0 -141 -76 -235 13 -246 234 l-8 165 58 0 c57 0 58 -1 55 -115z"/>
<path d="M1700 2379 c-19 -12 -23 -25 -10 -34 41 -30 35 -119 -9 -131 -53 -13
-54 -87 -2 -104 22 -7 42 -35 47 -66 l8 -54 3 54 c2 34 17 58 43 66 22 7 40
29 40 50 0 21 -18 43 -40 50 -25 8 -39 29 -38 56 2 34 5 36 12 9 11 -42 66
-47 66 -6 0 15 -17 34 -39 41 -21 6 -41 29 -45 50 -4 30 -13 34 -36 19z"/>
<path d="M1546 2305 c-7 -19 -16 -42 -20 -50 -5 -8 9 -15 30 -15 47 0 72 73
31 88 -16 7 -34 -4 -41 -23z"/>
<path d="M1867 2326 c-35 -12 -7 -86 33 -86 27 0 33 11 26 40 -12 47 -27 58
-59 46z"/>
<path d="M1520 2191 c0 -43 44 -108 66 -100 42 16 18 109 -28 109 -21 0 -38
-4 -38 -9z"/>
<path d="M1855 2151 c-13 -69 41 -85 66 -19 25 67 25 68 -19 68 -24 0 -41 -18
-47 -49z"/>
<path d="M2987 2190 c-16 -43 6 -90 44 -90 55 0 109 40 109 81 0 49 -134 58
-153 9z"/>
</g>
</svg>
