<?xml version="1.0" standalone="no"?>
<!DOCTYPE svg PUBLIC "-//W3C//DTD SVG 20010904//EN"
 "http://www.w3.org/TR/2001/REC-SVG-20010904/DTD/svg10.dtd">
<svg version="1.0" xmlns="http://www.w3.org/2000/svg"
 width="1406.000000pt" height="1076.000000pt" viewBox="0 0 1406.000000 1076.000000"
 preserveAspectRatio="xMidYMid meet">
<metadata>
Created by potrace 1.10, written by Peter Selinger 2001-2011
</metadata>
<g transform="translate(0.000000,1076.000000) scale(0.050000,-0.050000)"
fill="#000000" stroke="none">
<path d="M2570 18692 c-33 -15 -86 -55 -119 -90 -33 -35 -79 -62 -106 -62
-103 0 -225 -111 -225 -205 0 -15 -32 -39 -71 -53 -179 -64 -197 -325 -30
-412 67 -34 181 -40 181 -9 0 21 -15 28 -104 48 -181 39 -177 291 5 329 61 12
70 22 81 92 16 97 78 150 176 150 60 0 83 12 120 62 174 235 513 102 506 -197
l-3 -105 71 0 c95 0 168 -73 168 -170 0 -92 -73 -170 -159 -170 -41 0 -61 -10
-61 -30 0 -79 200 -7 250 89 74 144 -27 341 -176 341 -19 0 -28 27 -29 87 -4
244 -253 404 -475 305z"/>
<path d="M6728 18552 c-58 -58 -68 -82 -68 -160 0 -79 -6 -92 -40 -92 -31 0
-40 -13 -40 -60 0 -47 9 -60 40 -60 38 0 40 -13 40 -250 l0 -250 70 0 70 0 0
250 0 250 80 0 c76 0 80 3 80 60 0 57 -4 60 -80 60 -80 0 -80 0 -80 79 0 84
36 121 119 121 30 0 41 13 41 48 0 96 -137 99 -232 4z"/>
<path d="M7230 18593 c-75 -34 -115 -107 -115 -212 0 -66 -7 -81 -38 -81 -28
0 -37 -15 -37 -60 0 -47 9 -60 40 -60 38 0 40 -13 40 -250 l0 -250 68 0 68 0
-11 250 -11 250 83 0 c80 0 83 3 83 63 0 61 -1 62 -80 52 -80 -11 -80 -11 -80
57 0 82 65 157 123 141 34 -8 38 -1 33 54 -7 74 -66 90 -166 46z"/>
<path d="M3560 18140 l0 -460 75 0 75 0 0 460 0 460 -75 0 -75 0 0 -460z"/>
<path d="M5000 18140 l0 -460 80 0 80 0 0 200 0 200 200 0 200 0 0 -200 0
-200 80 0 80 0 0 460 0 460 -80 0 -80 0 0 -212 c0 -185 -4 -211 -32 -200 -17
7 -107 12 -200 12 l-168 0 0 200 0 200 -80 0 -80 0 0 -460z"/>
<path d="M2450 18287 c-361 -190 -257 -707 141 -707 310 0 483 350 295 597
-97 127 -304 179 -436 110z m153 -107 c6 -56 0 -80 -17 -80 -16 0 -26 -25 -26
-60 0 -51 -8 -60 -50 -60 -70 0 -67 70 5 104 45 22 55 40 55 102 0 99 24 95
33 -6z m163 31 c24 -18 29 -32 14 -41 -23 -14 -80 23 -80 52 0 25 24 21 66
-11z m-371 -88 c52 -32 7 -143 -57 -143 -67 0 -67 0 -29 91 30 71 43 80 86 52z
m482 -34 c36 -79 29 -109 -25 -109 -84 0 -93 158 -10 160 6 0 22 -23 35 -51z
m-273 -235 c3 -118 -1 -214 -9 -214 -15 0 -18 42 -18 230 0 295 19 284 27 -16z
m124 194 c21 -56 13 -68 -48 -68 -51 0 -60 8 -60 50 0 58 87 73 108 18z m-320
-192 c12 -60 -8 -95 -54 -96 -14 0 -74 121 -74 149 0 52 117 3 128 -53z m152
13 c0 -42 -8 -51 -45 -45 -69 9 -75 96 -6 96 41 0 51 -10 51 -51z m180 36 c-1
-67 -26 -98 -72 -90 -77 15 -68 105 12 105 33 0 60 -7 60 -15z m160 -14 c0
-87 -77 -164 -110 -111 -29 47 12 140 62 140 29 0 48 -12 48 -29z m-425 -191
c21 -33 20 -40 -2 -40 -34 0 -78 49 -59 67 21 21 35 15 61 -27z m325 8 c0 -4
-28 -21 -61 -39 l-61 -31 32 50 c27 40 90 55 90 20z"/>
<path d="M3900 17990 l0 -310 70 0 70 0 0 185 c0 232 39 315 147 315 65 0 91
30 93 105 0 28 -151 15 -196 -16 -40 -28 -44 -28 -44 0 0 22 -20 31 -70 31
l-70 0 0 -310z"/>
<path d="M4447 18262 c-131 -81 -56 -173 82 -102 78 39 125 35 166 -17 41 -51
29 -63 -62 -63 -214 0 -313 -66 -313 -209 0 -150 163 -244 314 -181 48 21 78
24 82 11 4 -12 39 -21 77 -21 l70 0 -6 252 -7 251 -65 59 c-82 72 -236 81
-338 20z m273 -343 c0 -102 -125 -170 -220 -119 -50 27 -53 111 -5 138 69 41
225 27 225 -19z"/>
<path d="M5873 18287 c-22 -22 -12 -371 14 -455 43 -145 232 -210 361 -125 45
29 52 30 52 3 0 -21 21 -30 70 -30 l70 0 0 310 0 310 -70 0 -70 0 0 -206 c0
-231 -20 -282 -121 -304 -132 -29 -159 19 -159 280 l0 230 -67 0 c-36 0 -72
-6 -80 -13z"/>
</g>
</svg>
